<svg xmlns="http://www.w3.org/2000/svg" version="1.0" viewBox="0 0 316 416">
	<path d="M114.6 1.6a32.6 32.6 0 00-18.2 18.9c-3.7 13.1 2 28.4 12.9 34.1 2.6 1.4 2.7 1.7 2.7 9.4 0 4.4-.4 8-.8 8-.5 0-18.3 3.1-39.8 7C25.1 87.2 28 85.8 28 100.1v8.9H17.8c-6.2 0-11.3.5-12.8 1.3-3.3 1.7-5.5 5.7-4.7 8.8A228 228 0 0017 141l15.9 19.5.1 125.1v125.1l2.6 2.7 2.7 2.6h86.1c95.7 0 89.5.5 91.6-6.8.5-2 1-7.6 1-12.5V388h3.6a57.5 57.5 0 0049.3-36.7c2.9-8.1 46.1-190.3 46.1-194.7a20 20 0 00-11.2-17.7c-3.5-1.8-6.4-1.9-45.8-1.9h-42v-9.3c0-8.1.2-9.4 2-10.5 1.8-1.1 2-2.3 2-13.7 0-18.3 3.8-16.1-43-24.5a2781 2781 0 00-39.7-7c-.9 0-1.3-2.3-1.3-8 0-7.7.1-8 2.8-9.4A32 32 0 00151.1 42a33 33 0 00.1-25.1 31.6 31.6 0 00-14-14c-5.8-2.8-16-3.4-22.6-1.3zm15.5 7.6c13.3 3.9 19.1 20.1 11.1 31.1a19.2 19.2 0 01-17.8 8.5c-8-.5-13.3-4-16.9-11.1a19.1 19.1 0 014.9-24.3c6.3-5.1 11.8-6.3 18.7-4.2zM169 85.8l42.5 7.7.3 7.8.3 7.7H36.9l.3-7.7.3-7.8 42-7.7c23.1-4.2 43.1-7.6 44.5-7.7 1.4 0 21.6 3.5 45 7.7zM32 131.7c0 11.6-.2 13.5-1.3 12.3a3953.5 3953.5 0 00-19.5-24.3c-1.4-1.6-.9-1.7 9.6-1.7H32v13.7zm176 9.3v23H41v-46h167v23zm93 6.5c3.1 1.6 6 6.1 6 9.2 0 1-9.9 43.7-22 94.8-24 101.5-24.3 102.4-33.5 111.9-8.2 8.5-22.3 15.6-31 15.6H217v-9.7l4.9-.7a41.8 41.8 0 0028.9-21.9c2.5-5.2 43.2-177 43.2-182.1 0-2.6-.7-4-3.1-6l-3.1-2.6H217v-10h40.5c34.3 0 41.1.2 43.5 1.5zm-15.5 17.7c.3.7-8.7 40.4-20 88.3-14.9 63.1-21.2 88.1-23 91.1a35 35 0 01-22.2 15.8l-3.3.6V164h34c26.3 0 34.2.3 34.5 1.2zM112 214.5V256H41v-83h71v41.5zm16 0V256h-7v-83h7v41.5zm80 0V256h-71v-83h71v41.5zm0 94V352H41v-87h167v43.5zm-.2 75.7l-.3 23.3h-166l-.3-23.3L41 361h167l-.2 23.2z"/>
</svg>
