<svg xmlns="http://www.w3.org/2000/svg" version="1.0" viewBox="0 0 261 502">
	<path d="M30.3 2c-6.5 3.9-8.5 10.5-5.4 17.5 2.8 6.4 7.5 8.4 19.9 8.5H54v51h-5.8c-3.2 0-6.3.5-7 1.2-.9.9-1.2 25.4-1.2 104V287h-3.3c-5 0-5.7 1.4-5.7 10.7v8.3H17.5C.4 306 0 306.3 0 317.9c0 7.4.2 8.1 2.6 10 2.2 1.7 4.1 2.1 10 2.1H20v80.5c0 88.8-.2 85.6 6.2 89.5 3.2 2 4.8 2 79.1 2 83.7 0 79.7.3 83.7-6.3 1.6-2.6 2-5 2-13V473h4.8c24.2-.1 49.9-18.3 59.3-42.2 11.5-29.2 2.9-63.8-20.3-81.4a71.8 71.8 0 00-39-14.4c-4.7 0-4.8-.1-4.8-3v-3h8.4c10.5 0 11.6-1 11.6-11.1 0-5.2-.4-7.2-2.1-9.3-2-2.6-2.2-2.6-15.5-2.6H180v-7.6c0-9.4-1-11.4-5.5-11.4H171V81l-2.6-1c-1.4-.6-4.5-1-7-1H157V28h9.2c10.6 0 16.2-2 19.1-6.9a16.3 16.3 0 00-.4-15.2c-4.3-6.1-1-5.9-79.6-5.9-69.4 0-71.9.1-75 2zm144.2 7.4c2.7 1.2 3.5 2.1 3.5 4 0 5.7 1.9 5.6-73.7 5.6H35l-1.7-2.6c-1.2-1.9-1.4-3-.6-4.3 2.5-4 3.2-4.1 72.1-4.1 55.6 0 66.8.2 69.7 1.4zM148 127v99H63V28h85v99zm-93.8 35.7c.2 61.3 0 75.7-1.1 80-.8 3.1-1.9 5.3-2.7 5.3-1.2 0-1.4-13.2-1.4-80V88h4.9l.3 74.7zM162 168c0 69.5-.2 80-1.5 80-.8 0-1.9-1.7-2.5-4.3l-1.9-6.8c-.5-1.5-.5-3.2 0-4 .5-.8.9-33.4.9-73.2V88h5v80zm-13.8 73.7l1.6 6.3H118.5l-2.7-3.4c-5.6-7-15-7-20.5-.1l-2.8 3.5H61.3l1.5-6.5 1.6-6.5 41 .2 41.1.3 1.7 6.2zm-53.8 17.8c2.3 3.5 7.4 6.5 11.1 6.5 3.7 0 8.8-3 11.1-6.5l1.6-2.5H162v30H49v-30h43.8l1.6 2.5zM171 301v5H40v-10h131v5zm31 17v3H9v-6h193v3zM31 341.9c0 10.4.3 13.3 1.6 14.5 1.4 1.4 9.3 1.6 72 1.6 46.7 0 71.2-.3 72.5-1 1.7-1 1.9-2.2 1.9-14.5 0-11.3.2-13.5 1.5-13.5s1.5 6.2 1.5 49.5V428H28v-49.5c0-43.3.2-49.5 1.5-49.5s1.5 2.1 1.5 12.9zm140-2.9v10H40v-20h131v10zm35.5 6.5a58.8 58.8 0 0141.1 39.2c12.2 36.2-12.5 75.9-49.2 79l-7.4.6v-3c0-3 0-3 6.8-3.6a52.3 52.3 0 0045.7-39 66.3 66.3 0 000-29.4c-6.7-22.9-26.9-39.3-48.5-39.3-3.8 0-4-.2-4-3 0-2.9.1-3 4.8-3 2.6 0 7.5.7 10.7 1.5zm-1.4 15.1c15.7 4.7 28 19 30.9 36.3 4.1 24.6-14.3 49.6-38.2 51.8l-6.8.6V359h4.3c2.4 0 6.8.7 9.8 1.6zM182 463.3c0 21.1-.3 26.7-1.4 28.3-1.4 1.8-3.5 1.9-74.5 2.2l-73.2.2-2.4-2.4-2.5-2.5V437h154v26.3z"/>
	<path d="M99 111.2c-7.7 5.2-8.8 14.2-2.5 20.5 2.8 2.8 4 3.3 7.9 3.3 8.6 0 13.9-4.8 13.9-12.6 0-10.2-11.2-16.7-19.3-11.2zM97.1 155.5a12.8 12.8 0 00-1.5 18.4c9.1 10.8 26.1 1.7 22.3-12.1-2.2-8.3-14.1-11.9-20.8-6.3zM98.7 197.9c-11.2 7.3-6.6 24.1 6.6 24.1 13.1 0 17.9-17.7 6.7-24.4-3.7-2.1-9.8-2-13.3.3z"/>
</svg>
