<svg xmlns="http://www.w3.org/2000/svg" version="1.0" viewBox="0 0 318 416">
	<path d="M137.1 1.4a11 11 0 00-5.1 8.1c0 1.2 2.2 8.8 5 17a71.2 71.2 0 014.2 15.5c-.4.4-20.5 9.9-44.7 21.1l-44 20.4-23.8.5-23.9.5-2.4 2.8a9.9 9.9 0 00-1.2 11 1666 1666 0 0035.5 44.4L71 185l5.5 22.2c3.1 12.3 6 23.5 6.6 25 1.4 3.5 8 9.5 11.4 10.4 2.4.6 2.5.8 2.5 10v9.3l-4.4 1.9c-7.8 3.5-8.2 4.5-25.7 62.3-14 46.4-16.2 54.3-16.2 60.4-.1 11.8 5.5 21 16.1 26.2l5.7 2.8H159c80 0 86.8-.1 90.3-1.7 6.7-3 11.4-7.6 14.6-14 5.5-11 5.4-11.6-12.9-73.3-17.4-58.4-17.7-59.2-25.6-62.7l-4.4-1.9v-18.5l4.4-2.1c8.5-4.2 8.6-4.3 22.1-59l14.6-59.6 2.3-9.9 7.3.4c8 .4 11.1 2 15.1 7.8l2.2 3.3v49.9c0 54.6-.1 54 5.9 59.1 6.2 5.2 17.9 2.9 21.6-4.2 1.3-2.6 1.5-10.1 1.5-55.4 0-60.4 0-60.3-8.8-71.9A43.7 43.7 0 00275 84.3l-8.5-.6L222 63.2A1915.2 1915.2 0 01176.8 42c-.5-.3 1.5-7.3 4.2-15.5 2.8-8.2 5-15.7 5-16.7 0-3.1-2.3-6.9-5.1-8.4-3.9-1.9-40.2-2-43.8 0zm34.6 23.1L166.5 40h-15.3l-4.8-14.3-5.2-15.5c-.3-.9 3.6-1.2 17.6-1.2h18l-5.1 15.5zm1.9 36.2l16.3 17.5 5.4 5.8h-70.4l15.6-17.5c19.9-22.3 18-21.9 33.1-5.8zm-35.7-4.9l-14.3 16L112.8 84l-19.7-.1H73.5l4-2c4.7-2.4 62.8-29.7 63.4-29.8l-3 3.7zm81.6 16.1l26 12.1h-37.9l-10.1-10.8-14.4-15.4-4.3-4.8 7.3 3.4 33.4 15.5zM56.5 126l8.9 35.4c.5 1.9-9.4-9.5-27.8-32A1044 1044 0 019 93.7c0-.4 8.9-.6 19.7-.5l19.7.3 8.1 32.5zm55-29.8l9 66.8c4.7 34.9 8.7 65.2 9.1 67.2l.6 3.8H96.8l-2.7-2.8c-2.5-2.4-4.4-9.3-19.4-69.4C65.5 125 58 94.6 58 94c0-.6 9.4-1 26.5-1h26.4l.6 3.2zm88.9 2l-9.3 70.3-8.6 65h-43.9l-9.3-69.5-9.3-70.3c0-.4 18.2-.7 40.5-.7h40.6l-.7 5.2zm51 32.5l-16.6 67.7c-6.5 26.6-7.6 30.2-10.1 32.8l-2.9 2.8h-30.9l.6-3.3c.3-1.7 4.4-32 9-67.2l9.1-67.3.6-3.2h50.5l-9.3 37.7zm36.8-34.5a39 39 0 0117.6 17.6l2.7 5.7.3 52.7.3 52.7-2.5 1.6c-2 1.4-2.9 1.4-4.8.4a10 10 0 01-3-2.3c-.4-.6-.8-23.6-.8-51.1 0-48.1-.1-50.2-2.1-54.5-4.2-9.3-11.3-14-22.1-14.8-3.8-.3-6.8-.9-6.8-1.4l1.1-5.5 1.2-4.5 6.6.4c4.3.2 8.5 1.3 12.3 3zM212 252.5v9.5H106v-19h106v9.5zm-82.6 20.2c-.6 3.4-18.4 132.3-18.4 133.5 0 .4-8 .8-17.7.8-15.2 0-18.4-.3-21.9-1.9a20.7 20.7 0 01-11.5-22.3c2-8.8 31-105.7 32.3-107.7 2.6-4.2 6.3-5.1 22.5-5.1H130l-.6 2.7zm52.6-.6l9 66.4c5 36 9 66.1 9 66.9 0 1.4-4.5 1.6-40 1.6-33 0-40-.2-40-1.4l9-66.8c5-36.1 9-66 9-66.7 0-.8 6.3-1.1 22-1.1 14.8 0 22 .3 22 1.1zm41.9 1.6c2.7 2.5 4.6 8.1 18.5 55.3 8.6 28.9 15.8 53.9 16.2 55.6 1.5 7.9-5.8 19-14.3 21.3-2.1.6-10.6 1.1-18.9 1.1h-15.2l-.6-3.3-9.1-64.7-9-64.8-.6-3.2h15c15 0 15.1 0 18 2.7z"/>
</svg>
