<svg xmlns="http://www.w3.org/2000/svg" version="1.0" viewBox="0 0 257 415">
	<path d="M7.3 1.5C3.5 3.1 2 5.7 2 10.7c0 3.1 3.7 10.5 19.5 38.8l19.4 35-2.8 3a18.7 18.7 0 00-5.1 18.6c.6 2.2 6.7 14.1 13.6 26.3a175.1 175.1 0 0113.3 26.8l.8 4.7-5 .3c-3.4.2-5.3.8-6.1 2-1.8 2.9.4 5.3 5.2 5.6l4.2.3-1.7 3.2c-.9 1.8-10 14-20.4 27.3a684.6 684.6 0 00-20.8 27.5 22.3 22.3 0 002.8 23.4c.6.3-.7 3.2-2.9 6.6C-.5 285.7-4.5 326 6.1 359c3.2 9.9 10.6 23.5 17.1 31.6 7.3 9.1 20.3 21.3 24.5 23 2.6 1.1 17.9 1.4 80.8 1.4 67.6 0 78-.2 81.2-1.5 4.7-2 22.5-19.9 28.2-28.4 23.9-35.3 25.2-90.7 3-125.1l-3.9-6.1 2.2-3.2c2.9-4 3.7-13.8 1.5-18.7a277 277 0 00-18-24.5l-16.5-21 2.3-2.5c4.2-4.6 5.9-9.1 6-16 0-7.9-2.9-13.8-9.2-18.6l-4.2-3.2 10.6-18.8a173 173 0 0011.3-22.7 20 20 0 00-4.6-16.6l-3.6-4.1 19.6-35.3A421 421 0 00254 11c0-3.5-3.5-8.9-6.6-10-1.6-.6-45.9-1-119.7-1C30.3.1 10 .3 7.3 1.5zm237.3 8.9c.3.8-8.1 16.9-18.9 36.3l-19.4 34.8-78.4.2-78.4.3-19.3-35.1a355.3 355.3 0 01-18.8-36.4c.8-2.2 232.4-2.2 233.2-.1zM208 91.8c1.9.9 4.3 3.2 5.4 5.1 2.5 4.3 2.5 4.2-11 28.6l-10.6 19.3-4 .5a22 22 0 00-16.2 12l-2.9 5.7H69.3l-.6-4.9c-.7-5.7-2.5-9.5-17.1-35.6A147 147 0 0141 101.2c0-4.9 3.2-8.6 9-10.5.8-.3 35.9-.6 78-.6 70.9-.1 76.8 0 80 1.7zM197.7 155c10.5 4.7 11.1 18.9 1.1 25-7 4.2-15.7 1.4-19.6-6.2-1.8-3.5-2.2-5.4-1.6-8.2 1.1-6.4 7.9-12.5 13.9-12.5 1.1 0 3.9.8 6.2 1.9zm-26.3 23.5c1.5 3 4 6.4 5.5 7.5 2.8 1.9 2.8 2.1 1.5 5.7-1 2.8-1.3 11-1.4 31.6V251l-73.9-.2-74-.3-3-2.9c-3.4-3.3-4.6-7.2-3.2-10.7.5-1.3 10.2-14.3 21.5-28.8a349.1 349.1 0 0022.3-30.8l1.8-4.3H168.8l2.6 5.5zm23.8 14.2c1.7 1.5 1.8 3.8 1.8 30V251h-11v-28c0-26.7.1-28.1 2-30 2.4-2.4 4.7-2.5 7.2-.3zm38 44.2c1.3 3.6.1 7.4-3.3 10.7-2.9 2.8-3.5 2.9-13.5 3.2l-10.4.4v-50.4l13.1 16.8c7.2 9.3 13.5 18 14.1 19.3zM177 267.3c0 8.7.8 10.7 4.5 10.7s4.5-2 4.5-10.7V259h11v7.6c0 9 1 11.4 4.9 11.4 3.6 0 4.1-1.2 4.1-11.1V259h22.5l3.4 5.1c9.1 14 14 30.8 14.8 51 .3 7.5.3 15.7-.1 18.3l-.7 4.6H10.1l-.7-4.6c-.4-2.6-.4-10.8-.1-18.3.8-20.2 5.7-37 14.8-51l3.4-5.1H177v8.3zm66.5 82.4c-1 5.8-6 18.1-10.2 25.3-2.3 3.9-8.6 11.4-16 19l-12.2 12.5H50.9L38.7 394a131.2 131.2 0 01-16-19c-4.2-7.2-9.2-19.5-10.2-25.3l-.7-3.7h232.4l-.7 3.7z"/>
</svg>
